PathFileType	4	(X/Y/Z)	C:\MyCloud\GitHub\OpenSimScripting\Matlab\Data\Gait2354_Simbody\Hip_Kinetic_SLOW_Crop_Marker.trc	
DataRate	CameraRate	NumFrames	NumMarkers	Units	OrigDataRate	OrigDataStartFrame	OrigNumFrames
100	100	4	34	mm	100	2928	1050
Frame#	Time	Torso2			Torso3			Torso4			Hip1			Hip2			LThigh1			LThigh2			LThigh3			LThigh4			RThigh1			RThigh2			RThigh3			RThigh4			RTibia1			RTibia2			RTibia3			RTibia4			LTibia1			LTibia2			LTibia3			LTibia4			LFoot1			LFoot2			LFoot3			LFoot4			RFoot1			RFoot2			RFoot3			RFoot4			C7			Torso5			C_31			C_32			C_33			
		X1	Y1	Z1	X2	Y2	Z2	X3	Y3	Z3	X4	Y4	Z4	X5	Y5	Z5	X6	Y6	Z6	X7	Y7	Z7	X8	Y8	Z8	X9	Y9	Z9	X10	Y10	Z10	X11	Y11	Z11	X12	Y12	Z12	X13	Y13	Z13	X14	Y14	Z14	X15	Y15	Z15	X16	Y16	Z16	X17	Y17	Z17	X18	Y18	Z18	X19	Y19	Z19	X20	Y20	Z20	X21	Y21	Z21	X22	Y22	Z22	X23	Y23	Z23	X24	Y24	Z24	X25	Y25	Z25	X26	Y26	Z26	X27	Y27	Z27	X28	Y28	Z28	X29	Y29	Z29	X30	Y30	Z30	X31	Y31	Z31	X32	Y32	Z32	X33	Y33	Z33	X34	Y34	Z34	

2928	9.19000	416.63605	-299.58533	-1326.03613	422.30188	-304.10846	-1255.49475	407.67023	-451.22357	-1378.04907	274.48126	-450.00195	-865.11060	244.33594	-145.62898	-886.92426	142.25302	-505.13278	-798.01770	135.09726	-528.63733	-413.34317	138.38911	-385.86267	-404.14951	241.90373	-479.24115	-674.14355	155.25928	-118.22489	-797.74396	128.47137	-93.09673	-416.89615	121.90011	-232.94524	-392.88559	210.56784	-142.40605	-507.48752	91.98608	-78.22874	-363.21436	36.21114	-92.60332	45.91738	86.80426	-177.20291	31.43977	152.31076	-112.73757	-328.23425	103.19308	-544.20776	-374.62885	31.41393	-541.70251	40.04351	74.32143	-454.36301	27.92541	154.46452	-508.45712	-325.65234	2.43179	-484.66202	17.47648	106.68745	-571.46564	145.56848	198.51944	-511.52567	174.09680	151.87167	-463.69116	152.34056	10.01772	-154.24004	15.44489	106.58537	-45.55455	127.35547	190.19966	-81.07301	169.16978	156.15958	-139.21155	157.42033	531.82953	-327.63022	-1517.76453	392.14941	-163.25133	-1387.60242	0.00000	0.00000	0.00000	0.00000	0.00000	0.00000	0.00000	0.00000	0.00000	
2929	9.20000	416.38678	-299.40552	-1326.26917	422.13416	-304.03464	-1255.68726	407.39484	-451.07306	-1378.27356	274.41171	-450.08362	-865.24658	244.24782	-145.60681	-886.92651	142.34970	-505.12973	-798.01935	134.88318	-528.91626	-413.49048	138.42014	-385.84189	-404.16019	241.88239	-479.32114	-674.20325	155.27232	-118.21919	-797.73297	128.42105	-93.11463	-416.90891	121.84310	-233.02557	-392.90985	210.56139	-142.51639	-507.49954	91.92821	-78.23089	-363.21109	36.16116	-92.61806	45.87833	86.55199	-177.15981	31.54654	152.21788	-112.78331	-328.22800	103.23106	-544.32550	-374.71689	31.35288	-541.78491	40.04506	74.23531	-454.39719	27.89568	154.39603	-508.50485	-325.72107	2.42700	-484.68011	17.43867	106.60458	-571.38916	145.55299	198.49236	-511.53537	174.01472	151.79684	-463.70944	152.28958	10.02131	-154.26758	15.42625	106.56110	-45.63319	127.34807	190.17569	-81.15310	169.17384	155.98238	-139.21165	157.48347	531.61304	-327.62250	-1517.94116	391.88428	-163.12672	-1387.77795	0.00000	0.00000	0.00000	0.00000	0.00000	0.00000	0.00000	0.00000	0.00000	
2930	9.21000	416.20407	-299.31122	-1326.48474	422.02362	-303.97897	-1255.90784	407.13492	-450.97906	-1378.54224	274.49188	-450.10767	-865.30774	244.20699	-145.64896	-886.94452	142.23228	-505.14670	-798.11938	135.04019	-528.70026	-413.32022	138.38704	-385.92224	-404.21692	241.91135	-479.32416	-674.24261	155.31731	-118.22758	-797.71594	128.42947	-93.16816	-416.91226	121.78542	-233.00310	-392.89569	210.58275	-142.63557	-507.51047	91.97540	-78.30452	-363.21964	36.17670	-92.64430	45.87183	86.54494	-177.25056	31.54597	152.26439	-112.82549	-328.23450	103.20253	-544.28912	-374.77267	31.32140	-541.78101	39.99182	74.20820	-454.32272	27.67826	154.42567	-508.54813	-325.73508	2.35847	-484.73019	17.42952	106.57620	-571.38043	145.47540	198.50766	-511.60092	173.93454	151.86070	-463.72824	152.23383	9.94666	-154.10837	15.48903	106.61397	-45.64432	127.37106	190.22688	-81.22146	169.20427	156.01353	-139.26006	157.48366	531.58038	-327.50513	-1518.09448	391.59467	-163.08957	-1387.94617	0.00000	0.00000	0.00000	0.00000	0.00000	0.00000	0.00000	0.00000	0.00000	
2931	9.22000	416.03445	-299.20294	-1326.68872	421.95682	-303.95981	-1256.12976	406.98846	-450.92575	-1378.83154	274.41202	-450.14667	-865.45715	244.26555	-145.66356	-886.96729	142.24338	-505.08322	-798.14484	135.07550	-528.84589	-413.44568	138.51991	-386.04285	-404.27798	241.95546	-479.37036	-674.30365	155.33276	-118.28207	-797.73083	128.50757	-93.22844	-416.92496	121.81647	-233.09114	-392.92599	210.62755	-142.75481	-507.49985	92.04686	-78.40878	-363.24374	36.24682	-92.75494	45.85712	86.57963	-177.33682	31.53060	152.29596	-112.93507	-328.26105	103.30338	-544.43567	-374.89621	31.34943	-541.83289	39.92144	74.45196	-454.49533	27.88566	154.50598	-508.62613	-325.82141	2.38981	-484.66412	17.37115	106.65816	-571.54285	145.39177	198.57072	-511.72327	173.84277	151.95758	-463.84915	152.10397	9.99289	-154.24957	15.41951	106.59950	-45.77749	127.30597	190.26628	-81.32278	169.17389	155.97923	-139.35147	157.49939	531.51282	-327.55804	-1518.20239	391.30289	-163.03554	-1388.07373	0.00000	0.00000	0.00000	0.00000	0.00000	0.00000	0.00000	0.00000	0.00000	
